Coordinates
version=1
nRows=9
nColumns=42
inDegrees=yes

Units are S.I. units (second, meters, Newtons, ...)
If the header above contains a line with 'inDegrees', this indicates whether rotational values are in degrees (yes) or radians (no).

endheader
time	pelvis_tilt	pelvis_list	pelvis_rotation	pelvis_tx	pelvis_ty	pelvis_tz	hip_flexion_r	hip_adduction_r	hip_rotation_r	knee_angle_r	knee_adduction_r	knee_angle_r_beta	ankle_angle_r	subtalar_angle_r	mtp_angle_r	hip_flexion_l	hip_adduction_l	hip_rotation_l	knee_angle_l	knee_adduction_l	knee_angle_l_beta	ankle_angle_l	subtalar_angle_l	mtp_angle_l	lumbar_extension	lumbar_bending	lumbar_rotation	arm_flex_r	arm_add_r	arm_rot_r	elbow_flex_r	pro_sup_r	wrist_flex_r	wrist_dev_r	arm_flex_l	arm_add_l	arm_rot_l	elbow_flex_l	pro_sup_l	wrist_flex_l	wrist_dev_l
      0.72000000	      8.43655215	     -1.40150160	     -2.63666775	     -1.91521488	      0.88481016	      0.20080603	     -5.77054689	      8.53952842	    -29.60606725	     15.71358288	    -12.13920101	      0.27425376	     22.06093149	     33.40102852	     -7.59349276	     19.52956528	     -0.45287177	     -6.35903552	     56.04645585	     -4.48669722	      0.97819519	     12.15115566	    -13.86732876	     -7.59349276	    -28.22959929	     -0.17224749	      7.32420084	     18.38424234	    -18.63103224	     15.43477666	     44.76332558	     90.00000001	      0.00000000	      0.00000000	      1.77833030	    -12.67209532	     14.89047293	     30.30818912	     90.00000001	      0.00000000	      0.00000000
      0.73000000	      8.64390625	     -1.40005775	     -2.89661024	     -1.90319218	      0.88429938	      0.20232282	     -7.22814503	      8.54800646	    -29.62681078	     15.15281238	    -11.94821819	      0.26446647	     22.40658750	     33.98292656	     -7.58979244	     19.92111592	     -0.28923595	     -6.88270324	     52.62228214	     -4.66517528	      0.91843208	     12.17910120	    -13.19952139	     -7.58979244	    -28.46035498	     -0.32453690	      7.64589633	     19.04021885	    -18.94492429	     15.50300247	     45.75182060	     90.00000001	      0.00000000	      0.00000000	      0.80275148	    -12.48783675	     15.08183031	     30.07532614	     90.00000001	      0.00000000	      0.00000000
      0.74000000	      8.81487217	     -1.43967811	     -3.10854768	     -1.89120759	      0.88344848	      0.20368142	     -8.56937420	      8.58241533	    -29.66279238	     14.73974289	    -11.78236844	      0.25725704	     22.80460639	     34.42232258	     -7.58601613	     20.25029452	     -0.13358635	     -7.55334948	     48.97433679	     -5.01308919	      0.85476343	     12.24927288	    -12.27396760	     -7.58601613	    -28.66685185	     -0.40859213	      7.94342773	     19.70983806	    -19.25435096	     15.55722062	     46.68098001	     90.00000001	      0.00000000	      0.00000000	     -0.15409988	    -12.29264576	     15.23924142	     29.86841321	     90.00000001	      0.00000000	      0.00000000
      0.75000000	      8.45010794	     -1.77777460	     -3.16806243	     -1.87990380	      0.88129415	      0.20504303	     -9.02956140	      9.23721044	    -29.59266824	     14.58662315	    -12.11504298	      0.25458460	     23.17780969	     34.05982196	     -7.58443510	     21.39352874	     -0.37805249	     -7.81990506	     45.67822041	     -5.17496889	      0.79723534	     12.28172779	    -11.61091604	     -7.58443510	    -28.36434968	     -0.11250444	      8.25050714	     20.38477419	    -19.49639019	     15.49631430	     47.40945785	     90.00000001	      0.00000000	      0.00000000	     -1.09547948	    -12.02437338	     15.31223249	     29.69675982	     90.00000001	      0.00000000	      0.00000000
      0.76000000	      8.98943179	     -1.60967007	     -3.37361870	     -1.86730210	      0.88075263	      0.20592155	    -10.80110437	      8.77214810	    -29.77841146	     14.36222399	    -11.66517630	      0.25066810	     23.67299380	     34.95153931	     -7.57868146	     20.84651814	      0.11842736	     -9.33760619	     41.21349890	     -5.99776654	      0.71931125	     12.60720530	     -9.24945800	     -7.57868146	    -28.90884328	     -0.39051134	      8.38191256	     21.03840710	    -19.77887226	     15.67675913	     48.28631320	     90.00000001	      0.00000000	      0.00000000	     -2.04990772	    -11.88877456	     15.40141234	     29.57204421	     90.00000001	      0.00000000	      0.00000000
      0.77000000	      8.48946275	     -2.17253330	     -3.25685101	     -1.85581225	      0.87783444	      0.20692485	    -11.02740934	      9.65334957	    -29.76896511	     14.46595622	    -11.95825380	      0.25247857	     23.93768232	     34.29511478	     -7.57746619	     22.11736684	     -0.39530136	     -9.72055278	     38.08035880	     -6.13451034	      0.66462764	     12.65022716	     -8.71583228	     -7.57746619	    -28.41929421	      0.25949165	      8.57904843	     21.64637475	    -19.93624486	     15.57683572	     48.86841502	     90.00000001	      0.00000000	      0.00000000	     -3.04883306	    -11.64281295	     15.45226263	     29.42170799	     90.00000001	      0.00000000	      0.00000000
      0.78000000	      8.95331540	     -1.87764636	     -3.34368867	     -1.84364137	      0.87705816	      0.20730476	    -12.49623146	      9.08416834	    -29.85767796	     14.58079552	    -11.65467126	      0.25448289	     24.68179647	     34.43498510	     -7.57466912	     21.29018569	      0.45484641	    -10.37905397	     33.12164574	     -6.55120229	      0.57808177	     12.86318002	     -6.07554549	     -7.57466912	    -28.97150891	     -0.11499842	      8.57037771	     22.34106109	    -20.16705875	     15.68758810	     49.59328752	     90.00000001	      0.00000000	      0.00000000	     -3.72890195	    -11.41117209	     15.41017399	     29.16277514	     90.00000001	      0.00000000	      0.00000000
      0.79000000	      8.95495460	     -1.98610601	     -3.30027509	     -1.83148691	      0.87496627	      0.20787202	    -13.29404706	      9.21450733	    -30.15974005	     14.77200963	    -11.83185758	      0.25782021	     25.07786088	     34.69585137	     -7.57078180	     21.45155003	      0.61979076	    -11.58633991	     29.23851317	     -7.04461223	      0.51030832	     13.28888065	     -3.10838141	     -7.57078180	    -28.97876784	      0.00508906	      8.56311287	     22.94985644	    -20.26530735	     15.73023723	     50.09138206	     90.00000001	      0.00000000	      0.00000000	     -4.62136621	    -11.22811434	     15.36341051	     29.16120198	     90.00000001	      0.00000000	      0.00000000
      0.80000000	      8.82001957	     -2.18121504	     -3.17380231	     -1.81957876	      0.87259015	      0.20822168	    -13.84573123	      9.44784316	    -30.38026644	     15.15045144	    -12.00680273	      0.26442526	     25.49599814	     34.52916375	     -7.56740801	     21.75315097	      0.71828050	    -12.19413599	     25.64871991	     -7.22440619	      0.44765461	     13.50004862	     -0.48243498	     -7.56740801	    -28.86937090	      0.26189774	      8.53658046	     23.54123507	    -20.34172844	     15.69135514	     50.50095144	     90.00000001	      0.00000000	      0.00000000	     -5.38516236	    -11.01745450	     15.36001471	     29.03824368	     90.00000001	      0.00000000	      0.00000000
